<?xml version="1.0" encoding="UTF-8" standalone="no"?>
<svg width="60px" height="60px" viewBox="0 0 60 60" version="1.1" xmlns="http://www.w3.org/2000/svg" xmlns:xlink="http://www.w3.org/1999/xlink" xmlns:sketch="http://www.bohemiancoding.com/sketch/ns">
    <!-- Generator: Sketch 3.2.2 (9983) - http://www.bohemiancoding.com/sketch -->
    <title>Burger</title>
    <desc>Created with Sketch.</desc>
    <defs></defs>
    <g id="stroked" stroke="none" stroke-width="1" fill="none" fill-rule="evenodd" sketch:type="MSPage">
        <g id="Kitchen" sketch:type="MSLayerGroup" transform="translate(-727.000000, 2.000000)" stroke="#535353" stroke-width="2" stroke-linejoin="round">
            <g id="Burger" transform="translate(735.000000, 10.000000)" sketch:type="MSShapeGroup">
                <rect id="Rectangle-674" stroke-linecap="round" x="0" y="31" width="48" height="7" rx="16"></rect>
                <path d="M3,29 L45,29" id="Line" stroke-linecap="square"></path>
                <path d="M3,18 L45,18" id="Line" stroke-linecap="square"></path>
                <path d="M3.01132907,21 L45.4645061,21 L35.1185244,26.0303521 L27.1637911,23.8880227 L3.67412537,26.2249849 L3.01132907,21 Z" id="Path-1352" stroke-linecap="round"></path>
                <path d="M47.3362533,15 C43.8040807,6.24140776 34.6393187,0 23.8900362,0 C13.1407537,0 3.97599175,6.24140776 0.443819102,15 L47.3362533,15 L47.3362533,15 Z" id="Oval-628" stroke-linecap="round"></path>
                <path d="M9,11 L11,11" id="Line"></path>
                <path d="M13,7 L15,7" id="Line-204"></path>
                <path d="M16,10 L18,10" id="Line-205"></path>
                <path d="M21,5 L23,5" id="Line-206"></path>
                <path d="M29,11 L31,11" id="Line-207"></path>
                <path d="M33,8 L35,8" id="Line-208"></path>
            </g>
        </g>
    </g>
</svg>