<?xml version="1.0" encoding="UTF-8" standalone="no"?>
<svg width="60px" height="60px" viewBox="0 0 60 60" version="1.1" xmlns="http://www.w3.org/2000/svg" xmlns:xlink="http://www.w3.org/1999/xlink" xmlns:sketch="http://www.bohemiancoding.com/sketch/ns">
    <!-- Generator: Sketch 3.2.2 (9983) - http://www.bohemiancoding.com/sketch -->
    <title>Hotdog</title>
    <desc>Created with Sketch.</desc>
    <defs></defs>
    <g id="stroked" stroke="none" stroke-width="1" fill="none" fill-rule="evenodd" sketch:type="MSPage">
        <g id="Kitchen" sketch:type="MSLayerGroup" transform="translate(-847.000000, -478.000000)" stroke="#535353" stroke-width="2" stroke-linejoin="round">
            <g id="Hotdog" transform="translate(849.000000, 492.000000)" sketch:type="MSShapeGroup">
                <rect id="Rectangle-717" stroke-linecap="round" x="0" y="10" width="56" height="15" rx="16"></rect>
                <path d="M48,11 C48,4.92486775 39.045695,0 28,0 C16.954305,0 8,4.92486775 8,11 L48,11 Z" id="Oval-669" stroke-linecap="round"></path>
                <path d="M48,35 C48,28.9248678 39.045695,24 28,24 C16.954305,24 8,28.9248678 8,35 L48,35 Z" id="Oval-669" stroke-linecap="round" transform="translate(28.000000, 29.500000) scale(-1, -1) translate(-28.000000, -29.500000) "></path>
                <path d="M5.71145362,19.6724511 C5.71145362,19.6724511 5.27352552,15.0228704 12.2104514,15.0228705 C19.1473772,15.0228706 18.3285552,17.2531813 23.0064055,18.1945044 C27.6842557,19.1358275 28.365768,15.5262651 32.6671888,15.5262651 C36.9686095,15.5262651 37.7630262,18.3829674 42.7513448,19.672451 C47.7396634,20.9619346 49.9575177,15.5262651 49.9575177,15.5262651" id="Path-1511" stroke-linecap="round"></path>
                <path d="M17,6 L19,5" id="Line" stroke-linecap="square"></path>
                <path d="M24,5 L26,6" id="Line" stroke-linecap="square"></path>
                <path d="M31,6 L33,5" id="Line" stroke-linecap="square"></path>
                <path d="M20.4676362,29.4831525 L21.5323638,27.5168475" id="Line-228" stroke-linecap="square"></path>
                <path d="M26.8940597,28.6640004 L29.1059403,28.3359996" id="Line-226" stroke-linecap="square"></path>
                <path d="M34.4676362,29.4831525 L35.5323638,27.5168475" id="Line-227" stroke-linecap="square"></path>
            </g>
        </g>
    </g>
</svg>